P3
48 32
255
120 150 200 120 150 200 120 150 200 120 150 200 120 150 200 120 150 200 120 150 200 120 150 200 120 150 200 120 150 200 120 150 200 120 150 200 120 150 200 120 150 200 120 150 200 120 150 200 120 150 200 120 150 200 120 150 200 120 150 200 120 150 200 120 150 200 120 150 200 120 150 200 120 150 200 120 150 200 120 150 200 120 150 200 120 150 200 120 150 200 120 150 200 120 150 200 120 150 200 120 150 200 120 150 200 120 150 200 120 150 200 120 150 200 120 150 200 120 150 200 120 150 200 120 150 200 120 150 200 120 150 200 120 150 200 120 150 200 120 150 200 120 150 200
121 155 203 121 155 203 121 155 203 121 155 203 121 155 203 121 155 203 121 155 203 121 155 203 121 155 203 121 155 203 121 155 203 121 155 203 121 155 203 121 155 203 121 155 203 121 155 203 121 155 203 121 155 203 121 155 203 121 155 203 121 155 203 121 155 203 121 155 203 121 155 203 121 155 203 121 155 203 121 155 203 121 155 203 121 155 203 121 155 203 121 155 203 121 155 203 121 155 203 121 155 203 121 155 203 121 155 203 121 155 203 121 155 203 121 155 203 121 155 203 121 155 203 121 155 203 121 155 203 121 155 203 121 155 203 121 155 203 121 155 203 121 155 203
123 160 206 123 160 206 123 160 206 123 160 206 123 160 206 123 160 206 123 160 206 123 160 206 123 160 206 123 160 206 123 160 206 123 160 206 123 160 206 123 160 206 123 160 206 123 160 206 123 160 206 123 160 206 123 160 206 123 160 206 123 160 206 123 160 206 123 160 206 123 160 206 123 160 206 123 160 206 123 160 206 123 160 206 123 160 206 123 160 206 123 160 206 123 160 206 123 160 206 123 160 206 123 160 206 123 160 206 123 160 206 123 160 206 123 160 206 123 160 206 123 160 206 123 160 206 123 160 206 123 160 206 123 160 206 123 160 206 123 160 206 123 160 206
125 165 210 125 165 210 125 165 210 125 165 210 125 165 210 125 165 210 125 165 210 125 165 210 125 165 210 125 165 210 125 165 210 125 165 210 125 165 210 125 165 210 125 165 210 125 165 210 125 165 210 125 165 210 125 165 210 125 165 210 125 165 210 125 165 210 125 165 210 125 165 210 125 165 210 125 165 210 125 165 210 125 165 210 125 165 210 125 165 210 125 165 210 125 165 210 125 165 210 125 165 210 125 165 210 125 165 210 125 165 210 125 165 210 125 165 210 125 165 210 125 165 210 125 165 210 125 165 210 125 165 210 125 165 210 125 165 210 125 165 210 125 165 210
127 170 213 127 170 213 127 170 213 127 170 213 127 170 213 127 170 213 127 170 213 127 170 213 127 170 213 127 170 213 127 170 213 127 170 213 127 170 213 127 170 213 127 170 213 127 170 213 127 170 213 127 170 213 127 170 213 127 170 213 127 170 213 127 170 213 127 170 213 127 170 213 127 170 213 127 170 213 127 170 213 127 170 213 127 170 213 127 170 213 127 170 213 127 170 213 127 170 213 127 170 213 127 170 213 127 170 213 127 170 213 127 170 213 127 170 213 127 170 213 127 170 213 127 170 213 127 170 213 127 170 213 127 170 213 127 170 213 127 170 213 127 170 213
129 175 217 129 175 217 129 175 217 129 175 217 129 175 217 129 175 217 129 175 217 129 175 217 129 175 217 129 175 217 129 175 217 129 175 217 129 175 217 129 175 217 129 175 217 129 175 217 129 175 217 129 175 217 129 175 217 129 175 217 129 175 217 129 175 217 129 175 217 129 175 217 129 175 217 129 175 217 129 175 217 129 175 217 129 175 217 129 175 217 129 175 217 129 175 217 129 175 217 129 175 217 129 175 217 129 175 217 129 175 217 129 175 217 129 175 217 129 175 217 129 175 217 129 175 217 129 175 217 129 175 217 129 175 217 129 175 217 129 175 217 129 175 217
131 180 220 131 180 220 131 180 220 131 180 220 131 180 220 131 180 220 131 180 220 131 180 220 131 180 220 131 180 220 131 180 220 131 180 220 131 180 220 131 180 220 131 180 220 131 180 220 131 180 220 131 180 220 131 180 220 131 180 220 131 180 220 131 180 220 131 180 220 131 180 220 131 180 220 131 180 220 131 180 220 131 180 220 131 180 220 131 180 220 131 180 220 131 180 220 131 180 220 131 180 220 131 180 220 131 180 220 131 180 220 131 180 220 131 180 220 131 180 220 131 180 220 131 180 220 131 180 220 131 180 220 131 180 220 131 180 220 131 180 220 131 180 220
133 185 224 133 185 224 133 185 224 133 185 224 133 185 224 133 185 224 133 185 224 133 185 224 133 185 224 133 185 224 133 185 224 133 185 224 133 185 224 133 185 224 133 185 224 133 185 224 133 185 224 133 185 224 133 185 224 133 185 224 133 185 224 133 185 224 133 185 224 133 185 224 133 185 224 133 185 224 133 185 224 133 185 224 133 185 224 133 185 224 133 185 224 133 185 224 133 185 224 133 185 224 133 185 224 133 185 224 133 185 224 133 185 224 133 185 224 133 185 224 133 185 224 133 185 224 133 185 224 133 185 224 133 185 224 133 185 224 133 185 224 133 185 224
135 190 227 135 190 227 135 190 227 135 190 227 135 190 227 135 190 227 135 190 227 135 190 227 135 190 227 135 190 227 135 190 227 135 190 227 135 190 227 135 190 227 135 190 227 135 190 227 135 190 227 135 190 227 135 190 227 135 190 227 135 190 227 135 190 227 135 190 227 135 190 227 135 190 227 135 190 227 135 190 227 135 190 227 135 190 227 135 190 227 135 190 227 135 190 227 135 190 227 135 190 227 135 190 227 135 190 227 135 190 227 135 190 227 135 190 227 135 190 227 135 190 227 135 190 227 135 190 227 135 190 227 135 190 227 135 190 227 135 190 227 135 190 227
136 195 230 136 195 230 136 195 230 136 195 230 136 195 230 136 195 230 136 195 230 136 195 230 136 195 230 136 195 230 136 195 230 136 195 230 136 195 230 136 195 230 136 195 230 136 195 230 136 195 230 136 195 230 136 195 230 136 195 230 136 195 230 136 195 230 136 195 230 136 195 230 136 195 230 136 195 230 136 195 230 136 195 230 136 195 230 136 195 230 136 195 230 136 195 230 136 195 230 136 195 230 136 195 230 136 195 230 136 195 230 136 195 230 136 195 230 136 195 230 136 195 230 136 195 230 136 195 230 136 195 230 136 195 230 136 195 230 136 195 230 136 195 230
138 200 234 138 200 234 138 200 234 138 200 234 138 200 234 138 200 234 138 200 234 138 200 234 138 200 234 138 200 234 138 200 234 138 200 234 138 200 234 138 200 234 138 200 234 138 200 234 138 200 234 138 200 234 138 200 234 138 200 234 138 200 234 138 200 234 138 200 234 138 200 234 138 200 234 138 200 234 138 200 234 138 200 234 138 200 234 138 200 234 138 200 234 138 200 234 138 200 234 138 200 234 138 200 234 138 200 234 138 200 234 138 200 234 138 200 234 138 200 234 138 200 234 138 200 234 138 200 234 138 200 234 138 200 234 138 200 234 138 200 234 138 200 234
140 205 237 140 205 237 140 205 237 140 205 237 140 205 237 140 205 237 140 205 237 140 205 237 140 205 237 140 205 237 140 205 237 140 205 237 140 205 237 140 205 237 140 205 237 140 205 237 140 205 237 140 205 237 140 205 237 140 205 237 140 205 237 140 205 237 140 205 237 140 205 237 140 205 237 140 205 237 140 205 237 140 205 237 140 205 237 140 205 237 140 205 237 140 205 237 140 205 237 140 205 237 140 205 237 140 205 237 140 205 237 140 205 237 140 205 237 140 205 237 140 205 237 140 205 237 140 205 237 140 205 237 140 205 237 140 205 237 140 205 237 140 205 237
142 210 241 142 210 241 142 210 241 142 210 241 142 210 241 142 210 241 142 210 241 142 210 241 142 210 241 142 210 241 142 210 241 142 210 241 142 210 241 142 210 241 142 210 241 142 210 241 142 210 241 142 210 241 142 210 241 142 210 241 142 210 241 142 210 241 142 210 241 142 210 241 142 210 241 142 210 241 142 210 241 142 210 241 142 210 241 142 210 241 142 210 241 142 210 241 142 210 241 142 210 241 142 210 241 142 210 241 142 210 241 142 210 241 142 210 241 142 210 241 142 210 241 142 210 241 142 210 241 142 210 241 142 210 241 142 210 241 142 210 241 142 210 241
144 215 244 144 215 244 144 215 244 144 215 244 144 215 244 144 215 244 144 215 244 144 215 244 144 215 244 144 215 244 144 215 244 144 215 244 144 215 244 144 215 244 144 215 244 144 215 244 144 215 244 144 215 244 144 215 244 144 215 244 144 215 244 144 215 244 144 215 244 144 215 244 144 215 244 144 215 244 144 215 244 144 215 244 144 215 244 144 215 244 144 215 244 144 215 244 144 215 244 144 215 244 144 215 244 144 215 244 144 215 244 144 215 244 144 215 244 144 215 244 144 215 244 144 215 244 144 215 244 144 215 244 144 215 244 144 215 244 144 215 244 144 215 244
146 220 248 146 220 248 146 220 248 146 220 248 146 220 248 146 220 248 146 220 248 146 220 248 146 220 248 146 220 248 146 220 248 146 220 248 146 220 248 146 220 248 146 220 248 146 220 248 146 220 248 146 220 248 146 220 248 146 220 248 146 220 248 146 220 248 146 220 248 146 220 248 146 220 248 146 220 248 146 220 248 146 220 248 146 220 248 146 220 248 146 220 248 146 220 248 146 220 248 146 220 248 146 220 248 146 220 248 146 220 248 146 220 248 146 220 248 146 220 248 146 220 248 146 220 248 146 220 248 146 220 248 146 220 248 146 220 248 146 220 248 146 220 248
148 225 251 148 225 251 148 225 251 148 225 251 148 225 251 148 225 251 148 225 251 148 225 251 148 225 251 148 225 251 148 225 251 148 225 251 148 225 251 148 225 251 148 225 251 148 225 251 148 225 251 148 225 251 148 225 251 148 225 251 148 225 251 148 225 251 148 225 251 148 225 251 148 225 251 148 225 251 148 225 251 148 225 251 148 225 251 148 225 251 148 225 251 148 225 251 148 225 251 148 225 251 148 225 251 148 225 251 148 225 251 148 225 251 148 225 251 148 225 251 148 225 251 148 225 251 148 225 251 148 225 251 148 225 251 148 225 251 148 225 251 148 225 251
40 200 80 40 200 80 40 200 80 40 200 80 40 200 80 40 200 80 40 200 80 40 200 80 40 200 80 40 200 80 40 200 80 40 200 80 40 200 80 40 200 80 40 200 80 40 200 80 40 200 80 40 200 80 40 200 80 40 200 80 40 200 80 40 200 80 40 200 80 40 200 80 40 200 80 40 200 80 40 200 80 40 200 80 40 200 80 40 200 80 40 200 80 40 200 80 40 200 80 40 200 80 40 200 80 40 200 80 40 200 80 40 200 80 40 200 80 40 200 80 40 200 80 40 200 80 40 200 80 40 200 80 40 200 80 40 200 80 40 200 80 40 200 80
42 194 76 42 194 76 42 194 76 42 194 76 42 194 76 42 194 76 42 194 76 42 194 76 42 194 76 42 194 76 42 194 76 42 194 76 42 194 76 42 194 76 42 194 76 42 194 76 42 194 76 42 194 76 42 194 76 42 194 76 42 194 76 42 194 76 42 194 76 42 194 76 42 194 76 42 194 76 42 194 76 42 194 76 42 194 76 42 194 76 42 194 76 42 194 76 42 194 76 42 194 76 42 194 76 42 194 76 42 194 76 42 194 76 42 194 76 42 194 76 42 194 76 42 194 76 42 194 76 42 194 76 42 194 76 42 194 76 42 194 76 42 194 76
45 189 72 45 189 72 45 189 72 45 189 72 45 189 72 45 189 72 45 189 72 45 189 72 45 189 72 45 189 72 45 189 72 45 189 72 45 189 72 45 189 72 45 189 72 45 189 72 45 189 72 45 189 72 45 189 72 45 189 72 45 189 72 45 189 72 45 189 72 45 189 72 45 189 72 45 189 72 45 189 72 45 189 72 45 189 72 45 189 72 45 189 72 45 189 72 45 189 72 45 189 72 45 189 72 45 189 72 45 189 72 45 189 72 45 189 72 45 189 72 45 189 72 45 189 72 45 189 72 45 189 72 45 189 72 45 189 72 45 189 72 45 189 72
48 184 68 48 184 68 48 184 68 48 184 68 48 184 68 48 184 68 48 184 68 48 184 68 48 184 68 48 184 68 48 184 68 48 184 68 48 184 68 48 184 68 48 184 68 48 184 68 48 184 68 48 184 68 48 184 68 48 184 68 48 184 68 48 184 68 48 184 68 48 184 68 48 184 68 48 184 68 48 184 68 48 184 68 48 184 68 48 184 68 48 184 68 48 184 68 48 184 68 48 184 68 48 184 68 48 184 68 48 184 68 48 184 68 48 184 68 48 184 68 48 184 68 48 184 68 48 184 68 48 184 68 48 184 68 48 184 68 48 184 68 48 184 68
50 178 64 50 178 64 50 178 64 50 178 64 50 178 64 50 178 64 50 178 64 50 178 64 50 178 64 50 178 64 50 178 64 50 178 64 50 178 64 50 178 64 50 178 64 50 178 64 50 178 64 50 178 64 50 178 64 50 178 64 50 178 64 50 178 64 50 178 64 50 178 64 50 178 64 50 178 64 50 178 64 50 178 64 50 178 64 50 178 64 50 178 64 50 178 64 50 178 64 50 178 64 50 178 64 50 178 64 50 178 64 50 178 64 50 178 64 50 178 64 50 178 64 50 178 64 50 178 64 50 178 64 50 178 64 50 178 64 50 178 64 50 178 64
53 173 60 53 173 60 53 173 60 53 173 60 53 173 60 53 173 60 53 173 60 53 173 60 53 173 60 53 173 60 53 173 60 53 173 60 53 173 60 53 173 60 53 173 60 53 173 60 53 173 60 53 173 60 53 173 60 53 173 60 53 173 60 53 173 60 53 173 60 53 173 60 53 173 60 53 173 60 53 173 60 53 173 60 53 173 60 53 173 60 53 173 60 53 173 60 53 173 60 53 173 60 53 173 60 53 173 60 53 173 60 53 173 60 53 173 60 53 173 60 53 173 60 53 173 60 53 173 60 53 173 60 53 173 60 53 173 60 53 173 60 53 173 60
56 168 56 56 168 56 56 168 56 56 168 56 56 168 56 56 168 56 56 168 56 56 168 56 56 168 56 56 168 56 56 168 56 56 168 56 56 168 56 56 168 56 56 168 56 56 168 56 56 168 56 56 168 56 56 168 56 56 168 56 56 168 56 56 168 56 56 168 56 56 168 56 56 168 56 56 168 56 56 168 56 56 168 56 56 168 56 56 168 56 56 168 56 56 168 56 56 168 56 56 168 56 56 168 56 56 168 56 56 168 56 56 168 56 56 168 56 56 168 56 56 168 56 56 168 56 56 168 56 56 168 56 56 168 56 56 168 56 56 168 56 56 168 56
58 162 52 58 162 52 58 162 52 58 162 52 58 162 52 58 162 52 58 162 52 58 162 52 58 162 52 58 162 52 58 162 52 58 162 52 58 162 52 58 162 52 58 162 52 58 162 52 58 162 52 58 162 52 58 162 52 58 162 52 58 162 52 58 162 52 58 162 52 58 162 52 58 162 52 58 162 52 58 162 52 58 162 52 58 162 52 58 162 52 58 162 52 58 162 52 58 162 52 58 162 52 58 162 52 58 162 52 58 162 52 58 162 52 58 162 52 58 162 52 58 162 52 58 162 52 58 162 52 58 162 52 58 162 52 58 162 52 58 162 52 58 162 52
61 157 48 61 157 48 61 157 48 61 157 48 61 157 48 61 157 48 61 157 48 61 157 48 61 157 48 61 157 48 61 157 48 61 157 48 61 157 48 61 157 48 61 157 48 61 157 48 61 157 48 61 157 48 61 157 48 61 157 48 61 157 48 61 157 48 61 157 48 61 157 48 61 157 48 61 157 48 61 157 48 61 157 48 61 157 48 61 157 48 61 157 48 61 157 48 61 157 48 61 157 48 61 157 48 61 157 48 61 157 48 61 157 48 61 157 48 61 157 48 61 157 48 61 157 48 61 157 48 61 157 48 61 157 48 61 157 48 61 157 48 61 157 48
64 152 44 64 152 44 64 152 44 64 152 44 64 152 44 64 152 44 64 152 44 64 152 44 64 152 44 64 152 44 64 152 44 64 152 44 64 152 44 64 152 44 64 152 44 64 152 44 64 152 44 64 152 44 64 152 44 64 152 44 64 152 44 64 152 44 64 152 44 64 152 44 64 152 44 64 152 44 64 152 44 64 152 44 64 152 44 64 152 44 64 152 44 64 152 44 64 152 44 64 152 44 64 152 44 64 152 44 64 152 44 64 152 44 64 152 44 64 152 44 64 152 44 64 152 44 64 152 44 64 152 44 64 152 44 64 152 44 64 152 44 64 152 44
66 146 40 66 146 40 66 146 40 66 146 40 66 146 40 66 146 40 66 146 40 66 146 40 66 146 40 66 146 40 66 146 40 66 146 40 66 146 40 66 146 40 66 146 40 66 146 40 66 146 40 66 146 40 66 146 40 66 146 40 66 146 40 66 146 40 66 146 40 66 146 40 66 146 40 66 146 40 66 146 40 66 146 40 66 146 40 66 146 40 66 146 40 66 146 40 66 146 40 66 146 40 66 146 40 66 146 40 66 146 40 66 146 40 66 146 40 66 146 40 66 146 40 66 146 40 66 146 40 66 146 40 66 146 40 66 146 40 66 146 40 66 146 40
69 141 36 69 141 36 69 141 36 69 141 36 69 141 36 69 141 36 69 141 36 69 141 36 69 141 36 69 141 36 69 141 36 69 141 36 69 141 36 69 141 36 69 141 36 69 141 36 69 141 36 69 141 36 69 141 36 69 141 36 69 141 36 69 141 36 69 141 36 69 141 36 69 141 36 69 141 36 69 141 36 69 141 36 69 141 36 69 141 36 69 141 36 69 141 36 69 141 36 69 141 36 69 141 36 69 141 36 69 141 36 69 141 36 69 141 36 69 141 36 69 141 36 69 141 36 69 141 36 69 141 36 69 141 36 69 141 36 69 141 36 69 141 36
72 136 31 72 136 31 72 136 31 72 136 31 72 136 31 72 136 31 72 136 31 72 136 31 72 136 31 72 136 31 72 136 31 72 136 31 72 136 31 72 136 31 72 136 31 72 136 31 72 136 31 72 136 31 72 136 31 72 136 31 72 136 31 72 136 31 72 136 31 72 136 31 72 136 31 72 136 31 72 136 31 72 136 31 72 136 31 72 136 31 72 136 31 72 136 31 72 136 31 72 136 31 72 136 31 72 136 31 72 136 31 72 136 31 72 136 31 72 136 31 72 136 31 72 136 31 72 136 31 72 136 31 72 136 31 72 136 31 72 136 31 72 136 31
74 130 28 74 130 28 74 130 28 74 130 28 74 130 28 74 130 28 74 130 28 74 130 28 74 130 28 74 130 28 74 130 28 74 130 28 74 130 28 74 130 28 74 130 28 74 130 28 74 130 28 74 130 28 74 130 28 74 130 28 74 130 28 74 130 28 74 130 28 74 130 28 74 130 28 74 130 28 74 130 28 74 130 28 74 130 28 74 130 28 74 130 28 74 130 28 74 130 28 74 130 28 74 130 28 74 130 28 74 130 28 74 130 28 74 130 28 74 130 28 74 130 28 74 130 28 74 130 28 74 130 28 74 130 28 74 130 28 74 130 28 74 130 28
77 125 24 77 125 24 77 125 24 77 125 24 77 125 24 77 125 24 77 125 24 77 125 24 77 125 24 77 125 24 77 125 24 77 125 24 77 125 24 77 125 24 77 125 24 77 125 24 77 125 24 77 125 24 77 125 24 77 125 24 77 125 24 77 125 24 77 125 24 77 125 24 77 125 24 77 125 24 77 125 24 77 125 24 77 125 24 77 125 24 77 125 24 77 125 24 77 125 24 77 125 24 77 125 24 77 125 24 77 125 24 77 125 24 77 125 24 77 125 24 77 125 24 77 125 24 77 125 24 77 125 24 77 125 24 77 125 24 77 125 24 77 125 24
80 120 20 80 120 20 80 120 20 80 120 20 80 120 20 80 120 20 80 120 20 80 120 20 80 120 20 80 120 20 80 120 20 80 120 20 80 120 20 80 120 20 80 120 20 80 120 20 80 120 20 80 120 20 80 120 20 80 120 20 80 120 20 80 120 20 80 120 20 80 120 20 80 120 20 80 120 20 80 120 20 80 120 20 80 120 20 80 120 20 80 120 20 80 120 20 80 120 20 80 120 20 80 120 20 80 120 20 80 120 20 80 120 20 80 120 20 80 120 20 80 120 20 80 120 20 80 120 20 80 120 20 80 120 20 80 120 20 80 120 20 80 120 20
