P3
48 32
255
121 155 203 121 155 203 121 155 203 121 155 203 121 155 203 121 155 203 121 155 203 121 155 203 121 155 203 121 155 203 121 155 203 121 155 203 121 155 203 121 155 203 121 155 203 121 155 203 121 155 203 121 155 203 121 155 203 121 155 203 121 155 203 121 155 203 121 155 203 121 155 203 121 155 203 121 155 203 121 155 203 121 155 203 121 155 203 121 155 203 121 155 203 121 155 203 121 155 203 121 155 203 121 155 203 121 155 203 121 155 203 121 155 203 121 155 203 121 155 203 121 155 203 121 155 203 121 155 203 121 155 203 121 155 203 121 155 203 121 155 203 121 155 203
121 155 203 121 155 203 121 155 203 121 155 203 121 155 203 121 155 203 121 155 203 121 155 203 121 155 203 121 155 203 121 155 203 121 155 203 121 155 203 121 155 203 121 155 203 121 155 203 121 155 203 121 155 203 121 155 203 121 155 203 121 155 203 121 155 203 121 155 203 121 155 203 121 155 203 121 155 203 121 155 203 121 155 203 121 155 203 121 155 203 121 155 203 121 155 203 121 155 203 121 155 203 121 155 203 121 155 203 121 155 203 121 155 203 121 155 203 121 155 203 121 155 203 121 155 203 121 155 203 121 155 203 121 155 203 121 155 203 121 155 203 121 155 203
121 155 203 121 155 203 121 155 203 121 155 203 121 155 203 121 155 203 121 155 203 121 155 203 121 155 203 121 155 203 121 155 203 121 155 203 121 155 203 121 155 203 121 155 203 121 155 203 121 155 203 121 155 203 121 155 203 121 155 203 121 155 203 121 155 203 121 155 203 121 155 203 121 155 203 121 155 203 121 155 203 121 155 203 121 155 203 121 155 203 121 155 203 121 155 203 121 155 203 121 155 203 121 155 203 121 155 203 121 155 203 121 155 203 121 155 203 121 155 203 121 155 203 121 155 203 121 155 203 121 155 203 121 155 203 121 155 203 121 155 203 121 155 203
125 165 210 125 165 210 125 165 210 125 165 210 125 165 210 125 165 210 125 165 210 125 165 210 125 165 210 125 165 210 125 165 210 125 165 210 125 165 210 125 165 210 125 165 210 125 165 210 125 165 210 125 165 210 125 165 210 125 165 210 125 165 210 125 165 210 125 165 210 125 165 210 125 165 210 125 165 210 125 165 210 125 165 210 125 165 210 125 165 210 125 165 210 125 165 210 125 165 210 125 165 210 125 165 210 125 165 210 125 165 210 125 165 210 125 165 210 125 165 210 125 165 210 125 165 210 125 165 210 125 165 210 125 165 210 125 165 210 125 165 210 125 165 210
127 170 213 127 170 213 127 170 213 127 170 213 127 170 213 127 170 213 127 170 213 127 170 213 127 170 213 127 170 213 127 170 213 127 170 213 127 170 213 127 170 213 127 170 213 127 170 213 127 170 213 127 170 213 127 170 213 127 170 213 127 170 213 127 170 213 127 170 213 127 170 213 127 170 213 127 170 213 127 170 213 127 170 213 127 170 213 127 170 213 127 170 213 127 170 213 127 170 213 127 170 213 127 170 213 127 170 213 127 170 213 127 170 213 127 170 213 127 170 213 127 170 213 127 170 213 127 170 213 127 170 213 127 170 213 127 170 213 127 170 213 127 170 213
130 178 218 130 178 218 130 178 218 130 178 218 130 178 218 130 178 218 130 178 218 130 178 218 130 178 218 130 178 218 130 178 218 130 178 218 130 178 218 130 178 218 130 178 218 130 178 218 130 178 218 130 178 218 130 178 218 130 178 218 130 178 218 130 178 218 130 178 218 130 178 218 130 178 218 130 178 218 130 178 218 130 178 218 130 178 218 130 178 218 130 178 218 130 178 218 130 178 218 130 178 218 130 178 218 130 178 218 130 178 218 130 178 218 130 178 218 130 178 218 130 178 218 130 178 218 130 178 218 130 178 218 130 178 218 130 178 218 130 178 218 130 178 218
130 178 218 130 178 218 130 178 218 130 178 218 130 178 218 130 178 218 130 178 218 130 178 218 130 178 218 130 178 218 130 178 218 130 178 218 130 178 218 130 178 218 130 178 218 130 178 218 130 178 218 130 178 218 130 178 218 130 178 218 130 178 218 130 178 218 130 178 218 130 178 218 130 178 218 130 178 218 130 178 218 130 178 218 130 178 218 130 178 218 130 178 218 130 178 218 130 178 218 130 178 218 130 178 218 130 178 218 130 178 218 130 178 218 130 178 218 130 178 218 130 178 218 130 178 218 130 178 218 130 178 218 130 178 218 130 178 218 130 178 218 130 178 218
135 190 227 135 190 227 135 190 227 135 190 227 135 190 227 135 190 227 135 190 227 135 190 227 135 190 227 135 190 227 135 190 227 135 190 227 135 190 227 135 190 227 135 190 227 135 190 227 135 190 227 135 190 227 135 190 227 135 190 227 135 190 227 135 190 227 135 190 227 135 190 227 135 190 227 135 190 227 135 190 227 135 190 227 135 190 227 135 190 227 135 190 227 135 190 227 135 190 227 135 190 227 135 190 227 135 190 227 135 190 227 135 190 227 135 190 227 135 190 227 135 190 227 135 190 227 135 190 227 135 190 227 135 190 227 135 190 227 135 190 227 135 190 227
135 190 227 135 190 227 135 190 227 135 190 227 135 190 227 135 190 227 135 190 227 135 190 227 135 190 227 135 190 227 135 190 227 135 190 227 135 190 227 135 190 227 135 190 227 135 190 227 135 190 227 135 190 227 135 190 227 135 190 227 135 190 227 135 190 227 135 190 227 135 190 227 135 190 227 135 190 227 135 190 227 135 190 227 135 190 227 135 190 227 135 190 227 135 190 227 135 190 227 135 190 227 135 190 227 135 190 227 135 190 227 135 190 227 135 190 227 135 190 227 135 190 227 135 190 227 135 190 227 135 190 227 135 190 227 135 190 227 135 190 227 135 190 227
135 190 227 135 190 227 135 190 227 135 190 227 135 190 227 135 190 227 135 190 227 135 190 227 135 190 227 135 190 227 135 190 227 135 190 227 135 190 227 135 190 227 135 190 227 135 190 227 135 190 227 135 190 227 135 190 227 135 190 227 135 190 227 135 190 227 135 190 227 135 190 227 135 190 227 135 190 227 135 190 227 135 190 227 135 190 227 135 190 227 135 190 227 135 190 227 135 190 227 135 190 227 135 190 227 135 190 227 135 190 227 135 190 227 135 190 227 135 190 227 135 190 227 135 190 227 135 190 227 135 190 227 135 190 227 135 190 227 135 190 227 135 190 227
139 202 236 139 202 236 139 202 236 139 202 236 139 202 236 139 202 236 139 202 236 139 202 236 139 202 236 139 202 236 139 202 236 139 202 236 139 202 236 139 202 236 139 202 236 139 202 236 139 202 236 139 202 236 139 202 236 139 202 236 139 202 236 139 202 236 139 202 236 139 202 236 139 202 236 139 202 236 139 202 236 139 202 236 139 202 236 139 202 236 139 202 236 139 202 236 139 202 236 139 202 236 139 202 236 139 202 236 139 202 236 139 202 236 139 202 236 139 202 236 139 202 236 139 202 236 139 202 236 139 202 236 139 202 236 139 202 236 139 202 236 139 202 236
139 202 236 139 202 236 139 202 236 139 202 236 139 202 236 139 202 236 139 202 236 139 202 236 139 202 236 139 202 236 139 202 236 139 202 236 139 202 236 139 202 236 139 202 236 139 202 236 139 202 236 139 202 236 139 202 236 139 202 236 139 202 236 139 202 236 139 202 236 139 202 236 139 202 236 139 202 236 139 202 236 139 202 236 139 202 236 139 202 236 139 202 236 139 202 236 139 202 236 139 202 236 139 202 236 139 202 236 139 202 236 139 202 236 139 202 236 139 202 236 139 202 236 139 202 236 139 202 236 139 202 236 139 202 236 139 202 236 139 202 236 139 202 236
145 218 246 145 218 246 145 218 246 145 218 246 145 218 246 145 218 246 145 218 246 145 218 246 145 218 246 145 218 246 145 218 246 145 218 246 145 218 246 145 218 246 145 218 246 145 218 246 145 218 246 145 218 246 145 218 246 145 218 246 145 218 246 145 218 246 145 218 246 145 218 246 145 218 246 145 218 246 145 218 246 145 218 246 145 218 246 145 218 246 145 218 246 145 218 246 145 218 246 145 218 246 145 218 246 145 218 246 145 218 246 145 218 246 145 218 246 145 218 246 145 218 246 145 218 246 145 218 246 145 218 246 145 218 246 145 218 246 145 218 246 145 218 246
145 218 246 145 218 246 145 218 246 145 218 246 145 218 246 145 218 246 145 218 246 145 218 246 145 218 246 145 218 246 145 218 246 145 218 246 145 218 246 145 218 246 145 218 246 145 218 246 145 218 246 145 218 246 145 218 246 145 218 246 145 218 246 145 218 246 145 218 246 145 218 246 145 218 246 145 218 246 145 218 246 145 218 246 145 218 246 145 218 246 145 218 246 145 218 246 145 218 246 145 218 246 145 218 246 145 218 246 145 218 246 145 218 246 145 218 246 145 218 246 145 218 246 145 218 246 145 218 246 145 218 246 145 218 246 145 218 246 145 218 246 145 218 246
145 218 246 145 218 246 145 218 246 145 218 246 145 218 246 145 218 246 145 218 246 145 218 246 145 218 246 145 218 246 145 218 246 145 218 246 145 218 246 145 218 246 145 218 246 145 218 246 145 218 246 145 218 246 145 218 246 145 218 246 145 218 246 145 218 246 145 218 246 145 218 246 145 218 246 145 218 246 145 218 246 145 218 246 145 218 246 145 218 246 145 218 246 145 218 246 145 218 246 145 218 246 145 218 246 145 218 246 145 218 246 145 218 246 145 218 246 145 218 246 145 218 246 145 218 246 145 218 246 145 218 246 145 218 246 145 218 246 145 218 246 145 218 246
145 218 246 145 218 246 145 218 246 145 218 246 145 218 246 145 218 246 145 218 246 145 218 246 145 218 246 145 218 246 145 218 246 145 218 246 145 218 246 145 218 246 145 218 246 145 218 246 145 218 246 145 218 246 145 218 246 145 218 246 145 218 246 145 218 246 145 218 246 145 218 246 145 218 246 145 218 246 145 218 246 145 218 246 145 218 246 145 218 246 145 218 246 145 218 246 145 218 246 145 218 246 145 218 246 145 218 246 145 218 246 145 218 246 145 218 246 145 218 246 145 218 246 145 218 246 145 218 246 145 218 246 145 218 246 145 218 246 145 218 246 145 218 246
48 184 68 48 184 68 48 184 68 48 184 68 48 184 68 48 184 68 48 184 68 48 184 68 48 184 68 48 184 68 48 184 68 48 184 68 48 184 68 48 184 68 48 184 68 48 184 68 48 184 68 48 184 68 48 184 68 48 184 68 48 184 68 48 184 68 48 184 68 48 184 68 48 184 68 48 184 68 48 184 68 48 184 68 48 184 68 48 184 68 48 184 68 48 184 68 48 184 68 48 184 68 48 184 68 48 184 68 48 184 68 48 184 68 48 184 68 48 184 68 48 184 68 48 184 68 48 184 68 48 184 68 48 184 68 48 184 68 48 184 68 48 184 68
48 184 68 48 184 68 48 184 68 48 184 68 48 184 68 48 184 68 48 184 68 48 184 68 48 184 68 48 184 68 48 184 68 48 184 68 48 184 68 48 184 68 48 184 68 48 184 68 48 184 68 48 184 68 48 184 68 48 184 68 48 184 68 48 184 68 48 184 68 48 184 68 48 184 68 48 184 68 48 184 68 48 184 68 48 184 68 48 184 68 48 184 68 48 184 68 48 184 68 48 184 68 48 184 68 48 184 68 48 184 68 48 184 68 48 184 68 48 184 68 48 184 68 48 184 68 48 184 68 48 184 68 48 184 68 48 184 68 48 184 68 48 184 68
48 184 68 48 184 68 48 184 68 48 184 68 48 184 68 48 184 68 48 184 68 48 184 68 48 184 68 48 184 68 48 184 68 48 184 68 48 184 68 48 184 68 48 184 68 48 184 68 48 184 68 48 184 68 48 184 68 48 184 68 48 184 68 48 184 68 48 184 68 48 184 68 48 184 68 48 184 68 48 184 68 48 184 68 48 184 68 48 184 68 48 184 68 48 184 68 48 184 68 48 184 68 48 184 68 48 184 68 48 184 68 48 184 68 48 184 68 48 184 68 48 184 68 48 184 68 48 184 68 48 184 68 48 184 68 48 184 68 48 184 68 48 184 68
48 184 68 48 184 68 48 184 68 48 184 68 48 184 68 48 184 68 48 184 68 48 184 68 48 184 68 48 184 68 48 184 68 48 184 68 48 184 68 48 184 68 48 184 68 48 184 68 48 184 68 48 184 68 48 184 68 48 184 68 48 184 68 48 184 68 48 184 68 48 184 68 48 184 68 48 184 68 48 184 68 48 184 68 48 184 68 48 184 68 48 184 68 48 184 68 48 184 68 48 184 68 48 184 68 48 184 68 48 184 68 48 184 68 48 184 68 48 184 68 48 184 68 48 184 68 48 184 68 48 184 68 48 184 68 48 184 68 48 184 68 48 184 68
48 184 68 48 184 68 48 184 68 48 184 68 48 184 68 48 184 68 48 184 68 48 184 68 48 184 68 48 184 68 48 184 68 48 184 68 48 184 68 48 184 68 48 184 68 48 184 68 48 184 68 48 184 68 48 184 68 48 184 68 48 184 68 48 184 68 48 184 68 48 184 68 48 184 68 48 184 68 48 184 68 48 184 68 48 184 68 48 184 68 48 184 68 48 184 68 48 184 68 48 184 68 48 184 68 48 184 68 48 184 68 48 184 68 48 184 68 48 184 68 48 184 68 48 184 68 48 184 68 48 184 68 48 184 68 48 184 68 48 184 68 48 184 68
48 184 68 48 184 68 48 184 68 48 184 68 48 184 68 48 184 68 48 184 68 48 184 68 48 184 68 48 184 68 48 184 68 48 184 68 48 184 68 48 184 68 48 184 68 48 184 68 48 184 68 48 184 68 48 184 68 48 184 68 48 184 68 48 184 68 48 184 68 48 184 68 48 184 68 48 184 68 48 184 68 48 184 68 48 184 68 48 184 68 48 184 68 48 184 68 48 184 68 48 184 68 48 184 68 48 184 68 48 184 68 48 184 68 48 184 68 48 184 68 48 184 68 48 184 68 48 184 68 48 184 68 48 184 68 48 184 68 48 184 68 48 184 68
48 184 68 48 184 68 48 184 68 48 184 68 48 184 68 48 184 68 48 184 68 48 184 68 48 184 68 48 184 68 48 184 68 48 184 68 48 184 68 48 184 68 48 184 68 48 184 68 48 184 68 48 184 68 48 184 68 48 184 68 48 184 68 48 184 68 48 184 68 48 184 68 48 184 68 48 184 68 48 184 68 48 184 68 48 184 68 48 184 68 48 184 68 48 184 68 48 184 68 48 184 68 48 184 68 48 184 68 48 184 68 48 184 68 48 184 68 48 184 68 48 184 68 48 184 68 48 184 68 48 184 68 48 184 68 48 184 68 48 184 68 48 184 68
64 152 44 64 152 44 64 152 44 64 152 44 64 152 44 64 152 44 64 152 44 64 152 44 64 152 44 64 152 44 64 152 44 64 152 44 64 152 44 64 152 44 64 152 44 64 152 44 64 152 44 64 152 44 64 152 44 64 152 44 64 152 44 64 152 44 64 152 44 64 152 44 64 152 44 64 152 44 64 152 44 64 152 44 64 152 44 64 152 44 64 152 44 64 152 44 64 152 44 64 152 44 64 152 44 64 152 44 64 152 44 64 152 44 64 152 44 64 152 44 64 152 44 64 152 44 64 152 44 64 152 44 64 152 44 64 152 44 64 152 44 64 152 44
64 152 44 64 152 44 64 152 44 64 152 44 64 152 44 64 152 44 64 152 44 64 152 44 64 152 44 64 152 44 64 152 44 64 152 44 64 152 44 64 152 44 64 152 44 64 152 44 64 152 44 64 152 44 64 152 44 64 152 44 64 152 44 64 152 44 64 152 44 64 152 44 64 152 44 64 152 44 64 152 44 64 152 44 64 152 44 64 152 44 64 152 44 64 152 44 64 152 44 64 152 44 64 152 44 64 152 44 64 152 44 64 152 44 64 152 44 64 152 44 64 152 44 64 152 44 64 152 44 64 152 44 64 152 44 64 152 44 64 152 44 64 152 44
64 152 44 64 152 44 64 152 44 64 152 44 64 152 44 64 152 44 64 152 44 64 152 44 64 152 44 64 152 44 64 152 44 64 152 44 64 152 44 64 152 44 64 152 44 64 152 44 64 152 44 64 152 44 64 152 44 64 152 44 64 152 44 64 152 44 64 152 44 64 152 44 64 152 44 64 152 44 64 152 44 64 152 44 64 152 44 64 152 44 64 152 44 64 152 44 64 152 44 64 152 44 64 152 44 64 152 44 64 152 44 64 152 44 64 152 44 64 152 44 64 152 44 64 152 44 64 152 44 64 152 44 64 152 44 64 152 44 64 152 44 64 152 44
64 152 44 64 152 44 64 152 44 64 152 44 64 152 44 64 152 44 64 152 44 64 152 44 64 152 44 64 152 44 64 152 44 64 152 44 64 152 44 64 152 44 64 152 44 64 152 44 64 152 44 64 152 44 64 152 44 64 152 44 64 152 44 64 152 44 64 152 44 64 152 44 64 152 44 64 152 44 64 152 44 64 152 44 64 152 44 64 152 44 64 152 44 64 152 44 64 152 44 64 152 44 64 152 44 64 152 44 64 152 44 64 152 44 64 152 44 64 152 44 64 152 44 64 152 44 64 152 44 64 152 44 64 152 44 64 152 44 64 152 44 64 152 44
64 152 44 64 152 44 64 152 44 64 152 44 64 152 44 64 152 44 64 152 44 64 152 44 64 152 44 64 152 44 64 152 44 64 152 44 64 152 44 64 152 44 64 152 44 64 152 44 64 152 44 64 152 44 64 152 44 64 152 44 64 152 44 64 152 44 64 152 44 64 152 44 64 152 44 64 152 44 64 152 44 64 152 44 64 152 44 64 152 44 64 152 44 64 152 44 64 152 44 64 152 44 64 152 44 64 152 44 64 152 44 64 152 44 64 152 44 64 152 44 64 152 44 64 152 44 64 152 44 64 152 44 64 152 44 64 152 44 64 152 44 64 152 44
76 128 26 76 128 26 76 128 26 76 128 26 76 128 26 76 128 26 76 128 26 76 128 26 76 128 26 76 128 26 76 128 26 76 128 26 76 128 26 76 128 26 76 128 26 76 128 26 76 128 26 76 128 26 76 128 26 76 128 26 76 128 26 76 128 26 76 128 26 76 128 26 76 128 26 76 128 26 76 128 26 76 128 26 76 128 26 76 128 26 76 128 26 76 128 26 76 128 26 76 128 26 76 128 26 76 128 26 76 128 26 76 128 26 76 128 26 76 128 26 76 128 26 76 128 26 76 128 26 76 128 26 76 128 26 76 128 26 76 128 26 76 128 26
76 128 26 76 128 26 76 128 26 76 128 26 76 128 26 76 128 26 76 128 26 76 128 26 76 128 26 76 128 26 76 128 26 76 128 26 76 128 26 76 128 26 76 128 26 76 128 26 76 128 26 76 128 26 76 128 26 76 128 26 76 128 26 76 128 26 76 128 26 76 128 26 76 128 26 76 128 26 76 128 26 76 128 26 76 128 26 76 128 26 76 128 26 76 128 26 76 128 26 76 128 26 76 128 26 76 128 26 76 128 26 76 128 26 76 128 26 76 128 26 76 128 26 76 128 26 76 128 26 76 128 26 76 128 26 76 128 26 76 128 26 76 128 26
76 128 26 76 128 26 76 128 26 76 128 26 76 128 26 76 128 26 76 128 26 76 128 26 76 128 26 76 128 26 76 128 26 76 128 26 76 128 26 76 128 26 76 128 26 76 128 26 76 128 26 76 128 26 76 128 26 76 128 26 76 128 26 76 128 26 76 128 26 76 128 26 76 128 26 76 128 26 76 128 26 76 128 26 76 128 26 76 128 26 76 128 26 76 128 26 76 128 26 76 128 26 76 128 26 76 128 26 76 128 26 76 128 26 76 128 26 76 128 26 76 128 26 76 128 26 76 128 26 76 128 26 76 128 26 76 128 26 76 128 26 76 128 26
76 128 26 76 128 26 76 128 26 76 128 26 76 128 26 76 128 26 76 128 26 76 128 26 76 128 26 76 128 26 76 128 26 76 128 26 76 128 26 76 128 26 76 128 26 76 128 26 76 128 26 76 128 26 76 128 26 76 128 26 76 128 26 76 128 26 76 128 26 76 128 26 76 128 26 76 128 26 76 128 26 76 128 26 76 128 26 76 128 26 76 128 26 76 128 26 76 128 26 76 128 26 76 128 26 76 128 26 76 128 26 76 128 26 76 128 26 76 128 26 76 128 26 76 128 26 76 128 26 76 128 26 76 128 26 76 128 26 76 128 26 76 128 26
