P3
48 32
255
123 160 206 123 160 206 123 160 206 123 160 206 123 160 206 123 160 206 123 160 206 123 160 206 123 160 206 123 160 206 123 160 206 123 160 206 123 160 206 123 160 206 123 160 206 123 160 206 123 160 206 123 160 206 123 160 206 123 160 206 123 160 206 123 160 206 123 160 206 123 160 206 123 160 206 123 160 206 123 160 206 123 160 206 123 160 206 123 160 206 123 160 206 123 160 206 123 160 206 123 160 206 123 160 206 123 160 206 123 160 206 123 160 206 123 160 206 123 160 206 123 160 206 123 160 206 123 160 206 123 160 206 123 160 206 123 160 206 123 160 206 123 160 206
123 160 206 123 160 206 123 160 206 123 160 206 123 160 206 123 160 206 123 160 206 123 160 206 123 160 206 123 160 206 123 160 206 123 160 206 123 160 206 123 160 206 123 160 206 123 160 206 123 160 206 123 160 206 123 160 206 123 160 206 123 160 206 123 160 206 123 160 206 123 160 206 123 160 206 123 160 206 123 160 206 123 160 206 123 160 206 123 160 206 123 160 206 123 160 206 123 160 206 123 160 206 123 160 206 123 160 206 123 160 206 123 160 206 123 160 206 123 160 206 123 160 206 123 160 206 123 160 206 123 160 206 123 160 206 123 160 206 123 160 206 123 160 206
123 160 206 123 160 206 123 160 206 123 160 206 123 160 206 123 160 206 123 160 206 123 160 206 123 160 206 123 160 206 123 160 206 123 160 206 123 160 206 123 160 206 123 160 206 123 160 206 123 160 206 123 160 206 123 160 206 123 160 206 123 160 206 123 160 206 123 160 206 123 160 206 123 160 206 123 160 206 123 160 206 123 160 206 123 160 206 123 160 206 123 160 206 123 160 206 123 160 206 123 160 206 123 160 206 123 160 206 123 160 206 123 160 206 123 160 206 123 160 206 123 160 206 123 160 206 123 160 206 123 160 206 123 160 206 123 160 206 123 160 206 123 160 206
123 160 206 123 160 206 123 160 206 123 160 206 123 160 206 123 160 206 123 160 206 123 160 206 123 160 206 123 160 206 123 160 206 123 160 206 123 160 206 123 160 206 123 160 206 123 160 206 123 160 206 123 160 206 123 160 206 123 160 206 123 160 206 123 160 206 123 160 206 123 160 206 123 160 206 123 160 206 123 160 206 123 160 206 123 160 206 123 160 206 123 160 206 123 160 206 123 160 206 123 160 206 123 160 206 123 160 206 123 160 206 123 160 206 123 160 206 123 160 206 123 160 206 123 160 206 123 160 206 123 160 206 123 160 206 123 160 206 123 160 206 123 160 206
123 160 206 123 160 206 123 160 206 123 160 206 123 160 206 123 160 206 123 160 206 123 160 206 123 160 206 123 160 206 123 160 206 123 160 206 123 160 206 123 160 206 123 160 206 123 160 206 123 160 206 123 160 206 123 160 206 123 160 206 123 160 206 123 160 206 123 160 206 123 160 206 123 160 206 123 160 206 123 160 206 123 160 206 123 160 206 123 160 206 123 160 206 123 160 206 123 160 206 123 160 206 123 160 206 123 160 206 123 160 206 123 160 206 123 160 206 123 160 206 123 160 206 123 160 206 123 160 206 123 160 206 123 160 206 123 160 206 123 160 206 123 160 206
133 185 224 133 185 224 133 185 224 133 185 224 133 185 224 133 185 224 133 185 224 133 185 224 133 185 224 133 185 224 133 185 224 133 185 224 133 185 224 133 185 224 133 185 224 133 185 224 133 185 224 133 185 224 133 185 224 133 185 224 133 185 224 133 185 224 133 185 224 133 185 224 133 185 224 133 185 224 133 185 224 133 185 224 133 185 224 133 185 224 133 185 224 133 185 224 133 185 224 133 185 224 133 185 224 133 185 224 133 185 224 133 185 224 133 185 224 133 185 224 133 185 224 133 185 224 133 185 224 133 185 224 133 185 224 133 185 224 133 185 224 133 185 224
133 185 224 133 185 224 133 185 224 133 185 224 133 185 224 133 185 224 133 185 224 133 185 224 133 185 224 133 185 224 133 185 224 133 185 224 133 185 224 133 185 224 133 185 224 133 185 224 133 185 224 133 185 224 133 185 224 133 185 224 133 185 224 133 185 224 133 185 224 133 185 224 133 185 224 133 185 224 133 185 224 133 185 224 133 185 224 133 185 224 133 185 224 133 185 224 133 185 224 133 185 224 133 185 224 133 185 224 133 185 224 133 185 224 133 185 224 133 185 224 133 185 224 133 185 224 133 185 224 133 185 224 133 185 224 133 185 224 133 185 224 133 185 224
133 185 224 133 185 224 133 185 224 133 185 224 133 185 224 133 185 224 133 185 224 133 185 224 133 185 224 133 185 224 133 185 224 133 185 224 133 185 224 133 185 224 133 185 224 133 185 224 133 185 224 133 185 224 133 185 224 133 185 224 133 185 224 133 185 224 133 185 224 133 185 224 133 185 224 133 185 224 133 185 224 133 185 224 133 185 224 133 185 224 133 185 224 133 185 224 133 185 224 133 185 224 133 185 224 133 185 224 133 185 224 133 185 224 133 185 224 133 185 224 133 185 224 133 185 224 133 185 224 133 185 224 133 185 224 133 185 224 133 185 224 133 185 224
133 185 224 133 185 224 133 185 224 133 185 224 133 185 224 133 185 224 133 185 224 133 185 224 133 185 224 133 185 224 133 185 224 133 185 224 133 185 224 133 185 224 133 185 224 133 185 224 133 185 224 133 185 224 133 185 224 133 185 224 133 185 224 133 185 224 133 185 224 133 185 224 133 185 224 133 185 224 133 185 224 133 185 224 133 185 224 133 185 224 133 185 224 133 185 224 133 185 224 133 185 224 133 185 224 133 185 224 133 185 224 133 185 224 133 185 224 133 185 224 133 185 224 133 185 224 133 185 224 133 185 224 133 185 224 133 185 224 133 185 224 133 185 224
133 185 224 133 185 224 133 185 224 133 185 224 133 185 224 133 185 224 133 185 224 133 185 224 133 185 224 133 185 224 133 185 224 133 185 224 133 185 224 133 185 224 133 185 224 133 185 224 133 185 224 133 185 224 133 185 224 133 185 224 133 185 224 133 185 224 133 185 224 133 185 224 133 185 224 133 185 224 133 185 224 133 185 224 133 185 224 133 185 224 133 185 224 133 185 224 133 185 224 133 185 224 133 185 224 133 185 224 133 185 224 133 185 224 133 185 224 133 185 224 133 185 224 133 185 224 133 185 224 133 185 224 133 185 224 133 185 224 133 185 224 133 185 224
143 212 242 143 212 242 143 212 242 143 212 242 143 212 242 143 212 242 143 212 242 143 212 242 143 212 242 143 212 242 143 212 242 143 212 242 143 212 242 143 212 242 143 212 242 143 212 242 143 212 242 143 212 242 143 212 242 143 212 242 143 212 242 143 212 242 143 212 242 143 212 242 143 212 242 143 212 242 143 212 242 143 212 242 143 212 242 143 212 242 143 212 242 143 212 242 143 212 242 143 212 242 143 212 242 143 212 242 143 212 242 143 212 242 143 212 242 143 212 242 143 212 242 143 212 242 143 212 242 143 212 242 143 212 242 143 212 242 143 212 242 143 212 242
143 212 242 143 212 242 143 212 242 143 212 242 143 212 242 143 212 242 143 212 242 143 212 242 143 212 242 143 212 242 143 212 242 143 212 242 143 212 242 143 212 242 143 212 242 143 212 242 143 212 242 143 212 242 143 212 242 143 212 242 143 212 242 143 212 242 143 212 242 143 212 242 143 212 242 143 212 242 143 212 242 143 212 242 143 212 242 143 212 242 143 212 242 143 212 242 143 212 242 143 212 242 143 212 242 143 212 242 143 212 242 143 212 242 143 212 242 143 212 242 143 212 242 143 212 242 143 212 242 143 212 242 143 212 242 143 212 242 143 212 242 143 212 242
143 212 242 143 212 242 143 212 242 143 212 242 143 212 242 143 212 242 143 212 242 143 212 242 143 212 242 143 212 242 143 212 242 143 212 242 143 212 242 143 212 242 143 212 242 143 212 242 143 212 242 143 212 242 143 212 242 143 212 242 143 212 242 143 212 242 143 212 242 143 212 242 143 212 242 143 212 242 143 212 242 143 212 242 143 212 242 143 212 242 143 212 242 143 212 242 143 212 242 143 212 242 143 212 242 143 212 242 143 212 242 143 212 242 143 212 242 143 212 242 143 212 242 143 212 242 143 212 242 143 212 242 143 212 242 143 212 242 143 212 242 143 212 242
143 212 242 143 212 242 143 212 242 143 212 242 143 212 242 143 212 242 143 212 242 143 212 242 143 212 242 143 212 242 143 212 242 143 212 242 143 212 242 143 212 242 143 212 242 143 212 242 143 212 242 143 212 242 143 212 242 143 212 242 143 212 242 143 212 242 143 212 242 143 212 242 143 212 242 143 212 242 143 212 242 143 212 242 143 212 242 143 212 242 143 212 242 143 212 242 143 212 242 143 212 242 143 212 242 143 212 242 143 212 242 143 212 242 143 212 242 143 212 242 143 212 242 143 212 242 143 212 242 143 212 242 143 212 242 143 212 242 143 212 242 143 212 242
143 212 242 143 212 242 143 212 242 143 212 242 143 212 242 143 212 242 143 212 242 143 212 242 143 212 242 143 212 242 143 212 242 143 212 242 143 212 242 143 212 242 143 212 242 143 212 242 143 212 242 143 212 242 143 212 242 143 212 242 143 212 242 143 212 242 143 212 242 143 212 242 143 212 242 143 212 242 143 212 242 143 212 242 143 212 242 143 212 242 143 212 242 143 212 242 143 212 242 143 212 242 143 212 242 143 212 242 143 212 242 143 212 242 143 212 242 143 212 242 143 212 242 143 212 242 143 212 242 143 212 242 143 212 242 143 212 242 143 212 242 143 212 242
143 212 242 143 212 242 143 212 242 143 212 242 143 212 242 143 212 242 143 212 242 143 212 242 143 212 242 143 212 242 143 212 242 143 212 242 143 212 242 143 212 242 143 212 242 143 212 242 143 212 242 143 212 242 143 212 242 143 212 242 143 212 242 143 212 242 143 212 242 143 212 242 143 212 242 143 212 242 143 212 242 143 212 242 143 212 242 143 212 242 143 212 242 143 212 242 143 212 242 143 212 242 143 212 242 143 212 242 143 212 242 143 212 242 143 212 242 143 212 242 143 212 242 143 212 242 143 212 242 143 212 242 143 212 242 143 212 242 143 212 242 143 212 242
50 178 64 50 178 64 50 178 64 50 178 64 50 178 64 50 178 64 50 178 64 50 178 64 50 178 64 50 178 64 50 178 64 50 178 64 50 178 64 50 178 64 50 178 64 50 178 64 50 178 64 50 178 64 50 178 64 50 178 64 50 178 64 50 178 64 50 178 64 50 178 64 50 178 64 50 178 64 50 178 64 50 178 64 50 178 64 50 178 64 50 178 64 50 178 64 50 178 64 50 178 64 50 178 64 50 178 64 50 178 64 50 178 64 50 178 64 50 178 64 50 178 64 50 178 64 50 178 64 50 178 64 50 178 64 50 178 64 50 178 64 50 178 64
50 178 64 50 178 64 50 178 64 50 178 64 50 178 64 50 178 64 50 178 64 50 178 64 50 178 64 50 178 64 50 178 64 50 178 64 50 178 64 50 178 64 50 178 64 50 178 64 50 178 64 50 178 64 50 178 64 50 178 64 50 178 64 50 178 64 50 178 64 50 178 64 50 178 64 50 178 64 50 178 64 50 178 64 50 178 64 50 178 64 50 178 64 50 178 64 50 178 64 50 178 64 50 178 64 50 178 64 50 178 64 50 178 64 50 178 64 50 178 64 50 178 64 50 178 64 50 178 64 50 178 64 50 178 64 50 178 64 50 178 64 50 178 64
50 178 64 50 178 64 50 178 64 50 178 64 50 178 64 50 178 64 50 178 64 50 178 64 50 178 64 50 178 64 50 178 64 50 178 64 50 178 64 50 178 64 50 178 64 50 178 64 50 178 64 50 178 64 50 178 64 50 178 64 50 178 64 50 178 64 50 178 64 50 178 64 50 178 64 50 178 64 50 178 64 50 178 64 50 178 64 50 178 64 50 178 64 50 178 64 50 178 64 50 178 64 50 178 64 50 178 64 50 178 64 50 178 64 50 178 64 50 178 64 50 178 64 50 178 64 50 178 64 50 178 64 50 178 64 50 178 64 50 178 64 50 178 64
50 178 64 50 178 64 50 178 64 50 178 64 50 178 64 50 178 64 50 178 64 50 178 64 50 178 64 50 178 64 50 178 64 50 178 64 50 178 64 50 178 64 50 178 64 50 178 64 50 178 64 50 178 64 50 178 64 50 178 64 50 178 64 50 178 64 50 178 64 50 178 64 50 178 64 50 178 64 50 178 64 50 178 64 50 178 64 50 178 64 50 178 64 50 178 64 50 178 64 50 178 64 50 178 64 50 178 64 50 178 64 50 178 64 50 178 64 50 178 64 50 178 64 50 178 64 50 178 64 50 178 64 50 178 64 50 178 64 50 178 64 50 178 64
50 178 64 50 178 64 50 178 64 50 178 64 50 178 64 50 178 64 50 178 64 50 178 64 50 178 64 50 178 64 50 178 64 50 178 64 50 178 64 50 178 64 50 178 64 50 178 64 50 178 64 50 178 64 50 178 64 50 178 64 50 178 64 50 178 64 50 178 64 50 178 64 50 178 64 50 178 64 50 178 64 50 178 64 50 178 64 50 178 64 50 178 64 50 178 64 50 178 64 50 178 64 50 178 64 50 178 64 50 178 64 50 178 64 50 178 64 50 178 64 50 178 64 50 178 64 50 178 64 50 178 64 50 178 64 50 178 64 50 178 64 50 178 64
50 178 64 50 178 64 50 178 64 50 178 64 50 178 64 50 178 64 50 178 64 50 178 64 50 178 64 50 178 64 50 178 64 50 178 64 50 178 64 50 178 64 50 178 64 50 178 64 50 178 64 50 178 64 50 178 64 50 178 64 50 178 64 50 178 64 50 178 64 50 178 64 50 178 64 50 178 64 50 178 64 50 178 64 50 178 64 50 178 64 50 178 64 50 178 64 50 178 64 50 178 64 50 178 64 50 178 64 50 178 64 50 178 64 50 178 64 50 178 64 50 178 64 50 178 64 50 178 64 50 178 64 50 178 64 50 178 64 50 178 64 50 178 64
50 178 64 50 178 64 50 178 64 50 178 64 50 178 64 50 178 64 50 178 64 50 178 64 50 178 64 50 178 64 50 178 64 50 178 64 50 178 64 50 178 64 50 178 64 50 178 64 50 178 64 50 178 64 50 178 64 50 178 64 50 178 64 50 178 64 50 178 64 50 178 64 50 178 64 50 178 64 50 178 64 50 178 64 50 178 64 50 178 64 50 178 64 50 178 64 50 178 64 50 178 64 50 178 64 50 178 64 50 178 64 50 178 64 50 178 64 50 178 64 50 178 64 50 178 64 50 178 64 50 178 64 50 178 64 50 178 64 50 178 64 50 178 64
50 178 64 50 178 64 50 178 64 50 178 64 50 178 64 50 178 64 50 178 64 50 178 64 50 178 64 50 178 64 50 178 64 50 178 64 50 178 64 50 178 64 50 178 64 50 178 64 50 178 64 50 178 64 50 178 64 50 178 64 50 178 64 50 178 64 50 178 64 50 178 64 50 178 64 50 178 64 50 178 64 50 178 64 50 178 64 50 178 64 50 178 64 50 178 64 50 178 64 50 178 64 50 178 64 50 178 64 50 178 64 50 178 64 50 178 64 50 178 64 50 178 64 50 178 64 50 178 64 50 178 64 50 178 64 50 178 64 50 178 64 50 178 64
50 178 64 50 178 64 50 178 64 50 178 64 50 178 64 50 178 64 50 178 64 50 178 64 50 178 64 50 178 64 50 178 64 50 178 64 50 178 64 50 178 64 50 178 64 50 178 64 50 178 64 50 178 64 50 178 64 50 178 64 50 178 64 50 178 64 50 178 64 50 178 64 50 178 64 50 178 64 50 178 64 50 178 64 50 178 64 50 178 64 50 178 64 50 178 64 50 178 64 50 178 64 50 178 64 50 178 64 50 178 64 50 178 64 50 178 64 50 178 64 50 178 64 50 178 64 50 178 64 50 178 64 50 178 64 50 178 64 50 178 64 50 178 64
72 136 32 72 136 32 72 136 32 72 136 32 72 136 32 72 136 32 72 136 32 72 136 32 72 136 32 72 136 32 72 136 32 72 136 32 72 136 32 72 136 32 72 136 32 72 136 32 72 136 32 72 136 32 72 136 32 72 136 32 72 136 32 72 136 32 72 136 32 72 136 32 72 136 32 72 136 32 72 136 32 72 136 32 72 136 32 72 136 32 72 136 32 72 136 32 72 136 32 72 136 32 72 136 32 72 136 32 72 136 32 72 136 32 72 136 32 72 136 32 72 136 32 72 136 32 72 136 32 72 136 32 72 136 32 72 136 32 72 136 32 72 136 32
72 136 32 72 136 32 72 136 32 72 136 32 72 136 32 72 136 32 72 136 32 72 136 32 72 136 32 72 136 32 72 136 32 72 136 32 72 136 32 72 136 32 72 136 32 72 136 32 72 136 32 72 136 32 72 136 32 72 136 32 72 136 32 72 136 32 72 136 32 72 136 32 72 136 32 72 136 32 72 136 32 72 136 32 72 136 32 72 136 32 72 136 32 72 136 32 72 136 32 72 136 32 72 136 32 72 136 32 72 136 32 72 136 32 72 136 32 72 136 32 72 136 32 72 136 32 72 136 32 72 136 32 72 136 32 72 136 32 72 136 32 72 136 32
72 136 32 72 136 32 72 136 32 72 136 32 72 136 32 72 136 32 72 136 32 72 136 32 72 136 32 72 136 32 72 136 32 72 136 32 72 136 32 72 136 32 72 136 32 72 136 32 72 136 32 72 136 32 72 136 32 72 136 32 72 136 32 72 136 32 72 136 32 72 136 32 72 136 32 72 136 32 72 136 32 72 136 32 72 136 32 72 136 32 72 136 32 72 136 32 72 136 32 72 136 32 72 136 32 72 136 32 72 136 32 72 136 32 72 136 32 72 136 32 72 136 32 72 136 32 72 136 32 72 136 32 72 136 32 72 136 32 72 136 32 72 136 32
72 136 32 72 136 32 72 136 32 72 136 32 72 136 32 72 136 32 72 136 32 72 136 32 72 136 32 72 136 32 72 136 32 72 136 32 72 136 32 72 136 32 72 136 32 72 136 32 72 136 32 72 136 32 72 136 32 72 136 32 72 136 32 72 136 32 72 136 32 72 136 32 72 136 32 72 136 32 72 136 32 72 136 32 72 136 32 72 136 32 72 136 32 72 136 32 72 136 32 72 136 32 72 136 32 72 136 32 72 136 32 72 136 32 72 136 32 72 136 32 72 136 32 72 136 32 72 136 32 72 136 32 72 136 32 72 136 32 72 136 32 72 136 32
72 136 32 72 136 32 72 136 32 72 136 32 72 136 32 72 136 32 72 136 32 72 136 32 72 136 32 72 136 32 72 136 32 72 136 32 72 136 32 72 136 32 72 136 32 72 136 32 72 136 32 72 136 32 72 136 32 72 136 32 72 136 32 72 136 32 72 136 32 72 136 32 72 136 32 72 136 32 72 136 32 72 136 32 72 136 32 72 136 32 72 136 32 72 136 32 72 136 32 72 136 32 72 136 32 72 136 32 72 136 32 72 136 32 72 136 32 72 136 32 72 136 32 72 136 32 72 136 32 72 136 32 72 136 32 72 136 32 72 136 32 72 136 32
72 136 32 72 136 32 72 136 32 72 136 32 72 136 32 72 136 32 72 136 32 72 136 32 72 136 32 72 136 32 72 136 32 72 136 32 72 136 32 72 136 32 72 136 32 72 136 32 72 136 32 72 136 32 72 136 32 72 136 32 72 136 32 72 136 32 72 136 32 72 136 32 72 136 32 72 136 32 72 136 32 72 136 32 72 136 32 72 136 32 72 136 32 72 136 32 72 136 32 72 136 32 72 136 32 72 136 32 72 136 32 72 136 32 72 136 32 72 136 32 72 136 32 72 136 32 72 136 32 72 136 32 72 136 32 72 136 32 72 136 32 72 136 32
72 136 32 72 136 32 72 136 32 72 136 32 72 136 32 72 136 32 72 136 32 72 136 32 72 136 32 72 136 32 72 136 32 72 136 32 72 136 32 72 136 32 72 136 32 72 136 32 72 136 32 72 136 32 72 136 32 72 136 32 72 136 32 72 136 32 72 136 32 72 136 32 72 136 32 72 136 32 72 136 32 72 136 32 72 136 32 72 136 32 72 136 32 72 136 32 72 136 32 72 136 32 72 136 32 72 136 32 72 136 32 72 136 32 72 136 32 72 136 32 72 136 32 72 136 32 72 136 32 72 136 32 72 136 32 72 136 32 72 136 32 72 136 32
