P3
48 32
255
120 150 200 120 150 200 120 150 200 120 150 200 120 150 200 120 150 200 120 150 200 120 150 200 120 150 200 120 150 200 120 150 200 120 150 200 120 150 200 120 150 200 120 150 200 120 150 200 120 150 200 120 150 200 120 150 200 120 150 200 120 150 200 120 150 200 120 150 200 120 150 200 120 150 200 120 150 200 120 150 200 120 150 200 120 150 200 120 150 200 120 150 200 120 150 200 120 150 200 120 150 200 120 150 200 120 150 200 120 150 200 120 150 200 120 150 200 120 150 200 120 150 200 120 150 200 120 150 200 120 150 200 120 150 200 120 150 200 120 150 200 120 150 200
121 155 203 121 155 203 121 155 203 121 155 203 121 155 203 121 155 203 121 155 203 121 155 203 121 155 203 121 155 203 121 155 203 121 155 203 121 155 203 121 155 203 121 155 203 121 155 203 121 155 203 121 155 203 121 155 203 121 155 203 121 155 203 121 155 203 121 155 203 121 155 203 121 155 203 121 155 203 121 155 203 121 155 203 121 155 203 121 155 203 121 155 203 121 155 203 121 155 203 121 155 203 121 155 203 121 155 203 121 155 203 121 155 203 121 155 203 121 155 203 121 155 203 121 155 203 121 155 203 121 155 203 121 155 203 121 155 203 121 155 203 121 155 203
123 160 206 123 160 206 123 160 206 123 160 206 123 160 206 123 160 206 123 160 206 123 160 206 123 160 206 123 160 206 123 160 206 123 160 206 123 160 206 123 160 206 123 160 206 123 160 206 123 160 206 123 160 206 123 160 206 123 160 206 123 160 206 123 160 206 123 160 206 123 160 206 123 160 206 123 160 206 123 160 206 123 160 206 123 160 206 123 160 206 123 160 206 123 160 206 123 160 206 123 160 206 123 160 206 123 160 206 123 160 206 123 160 206 123 160 206 123 160 206 123 160 206 123 160 206 123 160 206 123 160 206 123 160 206 123 160 206 123 160 206 123 160 206
125 165 210 125 165 210 125 165 210 125 165 210 125 165 210 125 165 210 125 165 210 125 165 210 125 165 210 125 165 210 125 165 210 125 165 210 125 165 210 125 165 210 125 165 210 125 165 210 125 165 210 125 165 210 125 165 210 125 165 210 125 165 210 125 165 210 125 165 210 125 165 210 125 165 210 125 165 210 125 165 210 125 165 210 125 165 210 125 165 210 125 165 210 125 165 210 125 165 210 125 165 210 125 165 210 125 165 210 125 165 210 125 165 210 125 165 210 125 165 210 125 165 210 125 165 210 125 165 210 125 165 210 125 165 210 125 165 210 125 165 210 125 165 210
127 170 213 127 170 213 127 170 213 127 170 213 127 170 213 127 170 213 127 170 213 127 170 213 127 170 213 127 170 213 127 170 213 127 170 213 127 170 213 127 170 213 127 170 213 127 170 213 127 170 213 127 170 213 127 170 213 127 170 213 127 170 213 127 170 213 127 170 213 127 170 213 127 170 213 127 170 213 127 170 213 127 170 213 127 170 213 127 170 213 127 170 213 127 170 213 127 170 213 127 170 213 127 170 213 127 170 213 127 170 213 127 170 213 127 170 213 127 170 213 127 170 213 127 170 213 127 170 213 127 170 213 127 170 213 127 170 213 127 170 213 127 170 213
130 178 218 130 178 218 130 178 218 130 178 218 130 178 218 130 178 218 130 178 218 130 178 218 130 178 218 130 178 218 130 178 218 130 178 218 130 178 218 130 178 218 130 178 218 130 178 218 130 178 218 130 178 218 130 178 218 130 178 218 130 178 218 130 178 218 130 178 218 130 178 218 130 178 218 130 178 218 130 178 218 130 178 218 130 178 218 130 178 218 130 178 218 130 178 218 130 178 218 130 178 218 130 178 218 130 178 218 130 178 218 130 178 218 130 178 218 130 178 218 130 178 218 130 178 218 130 178 218 130 178 218 130 178 218 130 178 218 130 178 218 130 178 218
130 178 218 130 178 218 130 178 218 130 178 218 130 178 218 130 178 218 130 178 218 130 178 218 130 178 218 130 178 218 130 178 218 130 178 218 130 178 218 130 178 218 130 178 218 130 178 218 130 178 218 130 178 218 130 178 218 130 178 218 130 178 218 130 178 218 130 178 218 130 178 218 130 178 218 130 178 218 130 178 218 130 178 218 130 178 218 130 178 218 130 178 218 130 178 218 130 178 218 130 178 218 130 178 218 130 178 218 130 178 218 130 178 218 130 178 218 130 178 218 130 178 218 130 178 218 130 178 218 130 178 218 130 178 218 130 178 218 130 178 218 130 178 218
134 188 226 134 188 226 134 188 226 134 188 226 134 188 226 134 188 226 134 188 226 134 188 226 134 188 226 134 188 226 134 188 226 134 188 226 134 188 226 134 188 226 134 188 226 134 188 226 134 188 226 134 188 226 134 188 226 134 188 226 134 188 226 134 188 226 134 188 226 134 188 226 134 188 226 134 188 226 134 188 226 134 188 226 134 188 226 134 188 226 134 188 226 134 188 226 134 188 226 134 188 226 134 188 226 134 188 226 134 188 226 134 188 226 134 188 226 134 188 226 134 188 226 134 188 226 134 188 226 134 188 226 134 188 226 134 188 226 134 188 226 134 188 226
134 188 226 134 188 226 134 188 226 134 188 226 134 188 226 134 188 226 134 188 226 134 188 226 134 188 226 134 188 226 134 188 226 134 188 226 134 188 226 134 188 226 134 188 226 134 188 226 134 188 226 134 188 226 134 188 226 134 188 226 134 188 226 134 188 226 134 188 226 134 188 226 134 188 226 134 188 226 134 188 226 134 188 226 134 188 226 134 188 226 134 188 226 134 188 226 134 188 226 134 188 226 134 188 226 134 188 226 134 188 226 134 188 226 134 188 226 134 188 226 134 188 226 134 188 226 134 188 226 134 188 226 134 188 226 134 188 226 134 188 226 134 188 226
136 195 230 136 195 230 136 195 230 136 195 230 136 195 230 136 195 230 136 195 230 136 195 230 136 195 230 136 195 230 136 195 230 136 195 230 136 195 230 136 195 230 136 195 230 136 195 230 136 195 230 136 195 230 136 195 230 136 195 230 136 195 230 136 195 230 136 195 230 136 195 230 136 195 230 136 195 230 136 195 230 136 195 230 136 195 230 136 195 230 136 195 230 136 195 230 136 195 230 136 195 230 136 195 230 136 195 230 136 195 230 136 195 230 136 195 230 136 195 230 136 195 230 136 195 230 136 195 230 136 195 230 136 195 230 136 195 230 136 195 230 136 195 230
139 202 236 139 202 236 139 202 236 139 202 236 139 202 236 139 202 236 139 202 236 139 202 236 139 202 236 139 202 236 139 202 236 139 202 236 139 202 236 139 202 236 139 202 236 139 202 236 139 202 236 139 202 236 139 202 236 139 202 236 139 202 236 139 202 236 139 202 236 139 202 236 139 202 236 139 202 236 139 202 236 139 202 236 139 202 236 139 202 236 139 202 236 139 202 236 139 202 236 139 202 236 139 202 236 139 202 236 139 202 236 139 202 236 139 202 236 139 202 236 139 202 236 139 202 236 139 202 236 139 202 236 139 202 236 139 202 236 139 202 236 139 202 236
139 202 236 139 202 236 139 202 236 139 202 236 139 202 236 139 202 236 139 202 236 139 202 236 139 202 236 139 202 236 139 202 236 139 202 236 139 202 236 139 202 236 139 202 236 139 202 236 139 202 236 139 202 236 139 202 236 139 202 236 139 202 236 139 202 236 139 202 236 139 202 236 139 202 236 139 202 236 139 202 236 139 202 236 139 202 236 139 202 236 139 202 236 139 202 236 139 202 236 139 202 236 139 202 236 139 202 236 139 202 236 139 202 236 139 202 236 139 202 236 139 202 236 139 202 236 139 202 236 139 202 236 139 202 236 139 202 236 139 202 236 139 202 236
145 218 246 145 218 246 145 218 246 145 218 246 145 218 246 145 218 246 145 218 246 145 218 246 145 218 246 145 218 246 145 218 246 145 218 246 145 218 246 145 218 246 145 218 246 145 218 246 145 218 246 145 218 246 145 218 246 145 218 246 145 218 246 145 218 246 145 218 246 145 218 246 145 218 246 145 218 246 145 218 246 145 218 246 145 218 246 145 218 246 145 218 246 145 218 246 145 218 246 145 218 246 145 218 246 145 218 246 145 218 246 145 218 246 145 218 246 145 218 246 145 218 246 145 218 246 145 218 246 145 218 246 145 218 246 145 218 246 145 218 246 145 218 246
145 218 246 145 218 246 145 218 246 145 218 246 145 218 246 145 218 246 145 218 246 145 218 246 145 218 246 145 218 246 145 218 246 145 218 246 145 218 246 145 218 246 145 218 246 145 218 246 145 218 246 145 218 246 145 218 246 145 218 246 145 218 246 145 218 246 145 218 246 145 218 246 145 218 246 145 218 246 145 218 246 145 218 246 145 218 246 145 218 246 145 218 246 145 218 246 145 218 246 145 218 246 145 218 246 145 218 246 145 218 246 145 218 246 145 218 246 145 218 246 145 218 246 145 218 246 145 218 246 145 218 246 145 218 246 145 218 246 145 218 246 145 218 246
145 218 246 145 218 246 145 218 246 145 218 246 145 218 246 145 218 246 145 218 246 145 218 246 145 218 246 145 218 246 145 218 246 145 218 246 145 218 246 145 218 246 145 218 246 145 218 246 145 218 246 145 218 246 145 218 246 145 218 246 145 218 246 145 218 246 145 218 246 145 218 246 145 218 246 145 218 246 145 218 246 145 218 246 145 218 246 145 218 246 145 218 246 145 218 246 145 218 246 145 218 246 145 218 246 145 218 246 145 218 246 145 218 246 145 218 246 145 218 246 145 218 246 145 218 246 145 218 246 145 218 246 145 218 246 145 218 246 145 218 246 145 218 246
145 218 246 145 218 246 145 218 246 145 218 246 145 218 246 145 218 246 145 218 246 145 218 246 145 218 246 145 218 246 145 218 246 145 218 246 145 218 246 145 218 246 145 218 246 145 218 246 145 218 246 145 218 246 145 218 246 145 218 246 145 218 246 145 218 246 145 218 246 145 218 246 145 218 246 145 218 246 145 218 246 145 218 246 145 218 246 145 218 246 145 218 246 145 218 246 145 218 246 145 218 246 145 218 246 145 218 246 145 218 246 145 218 246 145 218 246 145 218 246 145 218 246 145 218 246 145 218 246 145 218 246 145 218 246 145 218 246 145 218 246 145 218 246
44 192 74 44 192 74 44 192 74 44 192 74 44 192 74 44 192 74 44 192 74 44 192 74 44 192 74 44 192 74 44 192 74 44 192 74 44 192 74 44 192 74 44 192 74 44 192 74 44 192 74 44 192 74 44 192 74 44 192 74 44 192 74 44 192 74 44 192 74 44 192 74 44 192 74 44 192 74 44 192 74 44 192 74 44 192 74 44 192 74 44 192 74 44 192 74 44 192 74 44 192 74 44 192 74 44 192 74 44 192 74 44 192 74 44 192 74 44 192 74 44 192 74 44 192 74 44 192 74 44 192 74 44 192 74 44 192 74 44 192 74 44 192 74
44 192 74 44 192 74 44 192 74 44 192 74 44 192 74 44 192 74 44 192 74 44 192 74 44 192 74 44 192 74 44 192 74 44 192 74 44 192 74 44 192 74 44 192 74 44 192 74 44 192 74 44 192 74 44 192 74 44 192 74 44 192 74 44 192 74 44 192 74 44 192 74 44 192 74 44 192 74 44 192 74 44 192 74 44 192 74 44 192 74 44 192 74 44 192 74 44 192 74 44 192 74 44 192 74 44 192 74 44 192 74 44 192 74 44 192 74 44 192 74 44 192 74 44 192 74 44 192 74 44 192 74 44 192 74 44 192 74 44 192 74 44 192 74
44 192 74 44 192 74 44 192 74 44 192 74 44 192 74 44 192 74 44 192 74 44 192 74 44 192 74 44 192 74 44 192 74 44 192 74 44 192 74 44 192 74 44 192 74 44 192 74 44 192 74 44 192 74 44 192 74 44 192 74 44 192 74 44 192 74 44 192 74 44 192 74 44 192 74 44 192 74 44 192 74 44 192 74 44 192 74 44 192 74 44 192 74 44 192 74 44 192 74 44 192 74 44 192 74 44 192 74 44 192 74 44 192 74 44 192 74 44 192 74 44 192 74 44 192 74 44 192 74 44 192 74 44 192 74 44 192 74 44 192 74 44 192 74
44 192 74 44 192 74 44 192 74 44 192 74 44 192 74 44 192 74 44 192 74 44 192 74 44 192 74 44 192 74 44 192 74 44 192 74 44 192 74 44 192 74 44 192 74 44 192 74 44 192 74 44 192 74 44 192 74 44 192 74 44 192 74 44 192 74 44 192 74 44 192 74 44 192 74 44 192 74 44 192 74 44 192 74 44 192 74 44 192 74 44 192 74 44 192 74 44 192 74 44 192 74 44 192 74 44 192 74 44 192 74 44 192 74 44 192 74 44 192 74 44 192 74 44 192 74 44 192 74 44 192 74 44 192 74 44 192 74 44 192 74 44 192 74
53 173 60 53 173 60 53 173 60 53 173 60 53 173 60 53 173 60 53 173 60 53 173 60 53 173 60 53 173 60 53 173 60 53 173 60 53 173 60 53 173 60 53 173 60 53 173 60 53 173 60 53 173 60 53 173 60 53 173 60 53 173 60 53 173 60 53 173 60 53 173 60 53 173 60 53 173 60 53 173 60 53 173 60 53 173 60 53 173 60 53 173 60 53 173 60 53 173 60 53 173 60 53 173 60 53 173 60 53 173 60 53 173 60 53 173 60 53 173 60 53 173 60 53 173 60 53 173 60 53 173 60 53 173 60 53 173 60 53 173 60 53 173 60
53 173 60 53 173 60 53 173 60 53 173 60 53 173 60 53 173 60 53 173 60 53 173 60 53 173 60 53 173 60 53 173 60 53 173 60 53 173 60 53 173 60 53 173 60 53 173 60 53 173 60 53 173 60 53 173 60 53 173 60 53 173 60 53 173 60 53 173 60 53 173 60 53 173 60 53 173 60 53 173 60 53 173 60 53 173 60 53 173 60 53 173 60 53 173 60 53 173 60 53 173 60 53 173 60 53 173 60 53 173 60 53 173 60 53 173 60 53 173 60 53 173 60 53 173 60 53 173 60 53 173 60 53 173 60 53 173 60 53 173 60 53 173 60
53 173 60 53 173 60 53 173 60 53 173 60 53 173 60 53 173 60 53 173 60 53 173 60 53 173 60 53 173 60 53 173 60 53 173 60 53 173 60 53 173 60 53 173 60 53 173 60 53 173 60 53 173 60 53 173 60 53 173 60 53 173 60 53 173 60 53 173 60 53 173 60 53 173 60 53 173 60 53 173 60 53 173 60 53 173 60 53 173 60 53 173 60 53 173 60 53 173 60 53 173 60 53 173 60 53 173 60 53 173 60 53 173 60 53 173 60 53 173 60 53 173 60 53 173 60 53 173 60 53 173 60 53 173 60 53 173 60 53 173 60 53 173 60
61 157 48 61 157 48 61 157 48 61 157 48 61 157 48 61 157 48 61 157 48 61 157 48 61 157 48 61 157 48 61 157 48 61 157 48 61 157 48 61 157 48 61 157 48 61 157 48 61 157 48 61 157 48 61 157 48 61 157 48 61 157 48 61 157 48 61 157 48 61 157 48 61 157 48 61 157 48 61 157 48 61 157 48 61 157 48 61 157 48 61 157 48 61 157 48 61 157 48 61 157 48 61 157 48 61 157 48 61 157 48 61 157 48 61 157 48 61 157 48 61 157 48 61 157 48 61 157 48 61 157 48 61 157 48 61 157 48 61 157 48 61 157 48
61 157 48 61 157 48 61 157 48 61 157 48 61 157 48 61 157 48 61 157 48 61 157 48 61 157 48 61 157 48 61 157 48 61 157 48 61 157 48 61 157 48 61 157 48 61 157 48 61 157 48 61 157 48 61 157 48 61 157 48 61 157 48 61 157 48 61 157 48 61 157 48 61 157 48 61 157 48 61 157 48 61 157 48 61 157 48 61 157 48 61 157 48 61 157 48 61 157 48 61 157 48 61 157 48 61 157 48 61 157 48 61 157 48 61 157 48 61 157 48 61 157 48 61 157 48 61 157 48 61 157 48 61 157 48 61 157 48 61 157 48 61 157 48
61 157 48 61 157 48 61 157 48 61 157 48 61 157 48 61 157 48 61 157 48 61 157 48 61 157 48 61 157 48 61 157 48 61 157 48 61 157 48 61 157 48 61 157 48 61 157 48 61 157 48 61 157 48 61 157 48 61 157 48 61 157 48 61 157 48 61 157 48 61 157 48 61 157 48 61 157 48 61 157 48 61 157 48 61 157 48 61 157 48 61 157 48 61 157 48 61 157 48 61 157 48 61 157 48 61 157 48 61 157 48 61 157 48 61 157 48 61 157 48 61 157 48 61 157 48 61 157 48 61 157 48 61 157 48 61 157 48 61 157 48 61 157 48
68 144 38 68 144 38 68 144 38 68 144 38 68 144 38 68 144 38 68 144 38 68 144 38 68 144 38 68 144 38 68 144 38 68 144 38 68 144 38 68 144 38 68 144 38 68 144 38 68 144 38 68 144 38 68 144 38 68 144 38 68 144 38 68 144 38 68 144 38 68 144 38 68 144 38 68 144 38 68 144 38 68 144 38 68 144 38 68 144 38 68 144 38 68 144 38 68 144 38 68 144 38 68 144 38 68 144 38 68 144 38 68 144 38 68 144 38 68 144 38 68 144 38 68 144 38 68 144 38 68 144 38 68 144 38 68 144 38 68 144 38 68 144 38
68 144 38 68 144 38 68 144 38 68 144 38 68 144 38 68 144 38 68 144 38 68 144 38 68 144 38 68 144 38 68 144 38 68 144 38 68 144 38 68 144 38 68 144 38 68 144 38 68 144 38 68 144 38 68 144 38 68 144 38 68 144 38 68 144 38 68 144 38 68 144 38 68 144 38 68 144 38 68 144 38 68 144 38 68 144 38 68 144 38 68 144 38 68 144 38 68 144 38 68 144 38 68 144 38 68 144 38 68 144 38 68 144 38 68 144 38 68 144 38 68 144 38 68 144 38 68 144 38 68 144 38 68 144 38 68 144 38 68 144 38 68 144 38
73 133 30 73 133 30 73 133 30 73 133 30 73 133 30 73 133 30 73 133 30 73 133 30 73 133 30 73 133 30 73 133 30 73 133 30 73 133 30 73 133 30 73 133 30 73 133 30 73 133 30 73 133 30 73 133 30 73 133 30 73 133 30 73 133 30 73 133 30 73 133 30 73 133 30 73 133 30 73 133 30 73 133 30 73 133 30 73 133 30 73 133 30 73 133 30 73 133 30 73 133 30 73 133 30 73 133 30 73 133 30 73 133 30 73 133 30 73 133 30 73 133 30 73 133 30 73 133 30 73 133 30 73 133 30 73 133 30 73 133 30 73 133 30
73 133 30 73 133 30 73 133 30 73 133 30 73 133 30 73 133 30 73 133 30 73 133 30 73 133 30 73 133 30 73 133 30 73 133 30 73 133 30 73 133 30 73 133 30 73 133 30 73 133 30 73 133 30 73 133 30 73 133 30 73 133 30 73 133 30 73 133 30 73 133 30 73 133 30 73 133 30 73 133 30 73 133 30 73 133 30 73 133 30 73 133 30 73 133 30 73 133 30 73 133 30 73 133 30 73 133 30 73 133 30 73 133 30 73 133 30 73 133 30 73 133 30 73 133 30 73 133 30 73 133 30 73 133 30 73 133 30 73 133 30 73 133 30
77 125 24 77 125 24 77 125 24 77 125 24 77 125 24 77 125 24 77 125 24 77 125 24 77 125 24 77 125 24 77 125 24 77 125 24 77 125 24 77 125 24 77 125 24 77 125 24 77 125 24 77 125 24 77 125 24 77 125 24 77 125 24 77 125 24 77 125 24 77 125 24 77 125 24 77 125 24 77 125 24 77 125 24 77 125 24 77 125 24 77 125 24 77 125 24 77 125 24 77 125 24 77 125 24 77 125 24 77 125 24 77 125 24 77 125 24 77 125 24 77 125 24 77 125 24 77 125 24 77 125 24 77 125 24 77 125 24 77 125 24 77 125 24
80 120 20 80 120 20 80 120 20 80 120 20 80 120 20 80 120 20 80 120 20 80 120 20 80 120 20 80 120 20 80 120 20 80 120 20 80 120 20 80 120 20 80 120 20 80 120 20 80 120 20 80 120 20 80 120 20 80 120 20 80 120 20 80 120 20 80 120 20 80 120 20 80 120 20 80 120 20 80 120 20 80 120 20 80 120 20 80 120 20 80 120 20 80 120 20 80 120 20 80 120 20 80 120 20 80 120 20 80 120 20 80 120 20 80 120 20 80 120 20 80 120 20 80 120 20 80 120 20 80 120 20 80 120 20 80 120 20 80 120 20 80 120 20
